<svg xmlns="http://www.w3.org/2000/svg" width="32" height="32" viewBox="0 0 32 32">
  <path d="M6.5 11.5 5 3l7.5 4.5a14 14 0 0 1 7 0L27 3l-1.5 8.5c2 2 3 4.5 3 7.2C28.5 25 23 29 16 29S3.5 25 3.5 18.7c0-2.7 1-5.2 3-7.2Z" fill="#aaa9a6" stroke="#343434" stroke-width="1.25" stroke-linejoin="round"/>
  <path d="m6.4 10.8-.9-6.2 6.1 3.7-2 7.1-5.1 2.8c0-2.9.6-5.3 1.9-7.4Zm13.7-3 6.3-3.4-1.1 6.9c1.4 1.5 2.3 3.5 2.6 5.6l-7.2-1.6-4-6.2 3.4-1.3Z" fill="#777774" opacity=".8"/>
  <path d="M10.5 18h.2m10.6 0h.2M13.5 23c1.5 1.2 3.5 1.2 5 0M9 21 1.5 19.5M9 23l-7 2m21-4 7.5-1.5M23 23l7 2" fill="none" stroke="#343434" stroke-width="1.25" stroke-linecap="round"/>
  <path d="m16 20.5-1.4-1.2h2.8L16 20.5Z" fill="#343434"/>
</svg>
